<svg version="1.2" xmlns="http://www.w3.org/2000/svg" viewBox="0 0 1025 572" width="1025" height="572">
	<title>Dolphin_Emulator_Logo_Refresh</title>
	<defs>
		<linearGradient id="g1" x2="1" gradientUnits="userSpaceOnUse" gradientTransform="matrix(-113.25,-642.22,945.904,-166.802,551.69,654.33)">
			<stop offset="0" stop-color="#0e80ff"/>
			<stop offset=".13" stop-color="#0789ff"/>
			<stop offset=".25" stop-color="#0090ff"/>
			<stop offset=".38" stop-color="#009dff"/>
			<stop offset=".5" stop-color="#00aaff"/>
			<stop offset=".62" stop-color="#00b7ff"/>
			<stop offset=".75" stop-color="#00c4ff"/>
			<stop offset=".87" stop-color="#21ccff"/>
			<stop offset="1" stop-color="#46d4ff"/>
		</linearGradient>
	</defs>
	<style>
		.s0 { fill: url(#g1) } 
	</style>
	<path id="main" fill-rule="evenodd" class="s0" d="m1022.6 571.3c-2.1 0.3-73.5-154.8-169.5-249.4-78.3-77.1-220.9-203.5-451.3-194.6-102.9 4-151.1 51.4-144.1 63 6.7 11.3 140.6-31 283.5 44.4 130.1 68.6 185.5 179.3 182.8 181.3-2.2 1.7-101.1-86.7-250.5-125.8q-0.9-0.1-1.8-0.3c-26.7-6.6-29 29.3-1.4 63.5 31.9 39.7 46.8 43.2 45.3 48.3-2 6.5-63.1 8.8-122.2-32.5-52-36.4-75.4-85.8-82.3-92.1-5.8-5.4-12.4-4.1-20.2-4q-0.4 0-0.9 0c-83.1 3.2-132.4 12.4-196.2 37.7-28 11.1-66.7 13.5-88.8-9.3-22.8-23.6 39.1-56.9 44-75.8 6.4-24.7 2.5-121.3 180.3-173.8 69.3-20.4 207.2-40 357.5 6.3 7.6 1.9 14.4 2.1 21.4-2.8 18.6-13.1 49.7-30.8 101.9-35.4 87.6-7.9 115.7 19.1 113.4 24-2 4.5-80.1 4.2-96.6 52.8-6.1 18 6.8 28.2 16 34.5 32.7 21.3 63.4 45.4 91.8 72.1 66.6 62.2 112.8 129 150.5 219.7 29.9 72.2 39.9 147.8 37.4 148.2z"/>
</svg>