<svg version="1.2" xmlns="http://www.w3.org/2000/svg" viewBox="0 0 1024 1024" width="1024" height="1024">
	<title>New Project</title>
	<style>
		.s0 { fill: #000000 } 
	</style>
	<path id="β" class="s0" aria-label="β"  d="m377.5 408.5v341.8l72.8-0.1v-133.2h4.5c12.5 28.2 43 46.2 81 46.2 67.2 0 110.7-43.7 110.7-110.5 0-53.5-26.3-87.2-77.5-99.7v-4.5c30.8-13.3 50-43 50-77.3 0-61.5-46.5-98.7-117.5-98.7-80.3 0-124 47.2-124 136zm103.5 75.5h18c47.3 0 73 21.5 73 62.2 0 34.5-22.8 58.3-56 58.3-40.8 0-66-27.3-66-78.8v-126.5c0-45.5 17.8-69 52.5-69 30.8 0 50 19 50 50.3 0 31-19.5 49.2-54.5 49.2h-17z"/>
</svg>